<svg width="22" height="22" viewBox="0 0 22 22" fill="none" xmlns="http://www.w3.org/2000/svg">
<path fill-rule="evenodd" clip-rule="evenodd" d="M6.2315 1.65C3.4485 1.65 1.65 3.5563 1.65 6.5076V15.4924C1.65 18.4437 3.4485 20.35 6.2315 20.35H15.7663C18.5504 20.35 20.35 18.4437 20.35 15.4924V6.5076C20.35 3.5563 18.5504 1.65 15.7674 1.65H6.2315ZM15.7663 22H6.2315C2.5036 22 0 19.3842 0 15.4924V6.5076C0 2.6158 2.5036 0 6.2315 0H15.7674C19.4953 0 22 2.6158 22 6.5076V15.4924C22 19.3842 19.4953 22 15.7663 22Z" fill="#D61C4E"/>
<path fill-rule="evenodd" clip-rule="evenodd" d="M9.69485 14.4353C9.48475 14.4353 9.27245 14.355 9.11185 14.1933L6.50045 11.583C6.17815 11.2607 6.17815 10.7393 6.50045 10.417C6.82275 10.0947 7.34415 10.0947 7.66645 10.417L9.69485 12.4432L14.3325 7.80667C14.6548 7.48437 15.1762 7.48437 15.4985 7.80667C15.8208 8.12897 15.8208 8.65037 15.4985 8.97267L10.2779 14.1933C10.1173 14.355 9.90605 14.4353 9.69485 14.4353Z" fill="#D61C4E"/>
</svg>
