<svg width="23" height="19" viewBox="0 0 23 19" fill="none" xmlns="http://www.w3.org/2000/svg">
<g clip-path="url(#clip0_31_412)">
<path fill-rule="evenodd" clip-rule="evenodd" d="M13.6856 4.95811C13.2524 4.95811 12.9008 4.60648 12.9008 4.17322V1.63962C12.9008 1.20636 13.2524 0.854736 13.6856 0.854736C14.1189 0.854736 14.4705 1.20636 14.4705 1.63962V4.17322C14.4705 4.60648 14.1189 4.95811 13.6856 4.95811Z" fill="#D61C4E"/>
<path fill-rule="evenodd" clip-rule="evenodd" d="M13.6856 18.6812C13.2524 18.6812 12.9008 18.3296 12.9008 17.8964V15.7793C12.9008 15.345 13.2524 14.9944 13.6856 14.9944C14.1189 14.9944 14.4705 15.345 14.4705 15.7793V17.8964C14.4705 18.3296 14.1189 18.6812 13.6856 18.6812Z" fill="#D61C4E"/>
<path fill-rule="evenodd" clip-rule="evenodd" d="M13.6856 12.9683C13.2524 12.9683 12.9008 12.6166 12.9008 12.1834V7.13816C12.9008 6.7049 13.2524 6.35327 13.6856 6.35327C14.1189 6.35327 14.4705 6.7049 14.4705 7.13816V12.1834C14.4705 12.6166 14.1189 12.9683 13.6856 12.9683Z" fill="#D61C4E"/>
<mask id="mask0_31_412" style="mask-type:luminance" maskUnits="userSpaceOnUse" x="0" y="0" width="23" height="19">
<path fill-rule="evenodd" clip-rule="evenodd" d="M0.5 0.593018H23V18.9067H0.5V0.593018Z" fill="white"/>
</mask>
<g mask="url(#mask0_31_412)">
<path fill-rule="evenodd" clip-rule="evenodd" d="M2.06977 12.6842V14.7134C2.06977 16.1596 3.26593 17.337 4.73628 17.337H18.7637C20.2341 17.337 21.4302 16.1596 21.4302 14.7134V12.6842C20.121 12.3399 19.152 11.1552 19.152 9.7508C19.152 8.34533 20.12 7.16173 21.4302 6.81743L21.4292 4.78615C21.4292 3.33987 20.233 2.16254 18.7627 2.16254H4.73733C3.26698 2.16254 2.07081 3.33987 2.07081 4.78615L2.06977 6.89801C3.3957 7.22347 4.34802 8.35998 4.34802 9.7508C4.34802 11.1552 3.37895 12.3399 2.06977 12.6842ZM18.7637 18.9067H4.73628C2.40046 18.9067 0.5 17.0251 0.5 14.7134V12.0008C0.5 11.5675 0.851628 11.2159 1.28488 11.2159C2.10849 11.2159 2.77826 10.5587 2.77826 9.7508C2.77826 8.96591 2.1357 8.37359 1.28488 8.37359C1.07663 8.37359 0.876744 8.29091 0.730233 8.14336C0.582674 7.99684 0.5 7.79591 0.5 7.5887L0.501047 4.78615C0.501047 2.4744 2.40151 0.592773 4.73733 0.592773H18.7627C21.0985 0.592773 22.999 2.4744 22.999 4.78615L23 7.5008C23 7.70801 22.9173 7.90894 22.7698 8.05545C22.6233 8.20301 22.4234 8.28568 22.2151 8.28568C21.3915 8.28568 20.7217 8.94289 20.7217 9.7508C20.7217 10.5587 21.3915 11.2159 22.2151 11.2159C22.6484 11.2159 23 11.5675 23 12.0008V14.7134C23 17.0251 21.0995 18.9067 18.7637 18.9067Z" fill="#D61C4E"/>
</g>
</g>
<defs>
<clipPath id="clip0_31_412">
<rect width="23" height="19" fill="white"/>
</clipPath>
</defs>
</svg>
