<svg width="312" height="312" viewBox="0 0 312 312" fill="none" xmlns="http://www.w3.org/2000/svg">
<path d="M181.75 230.5H222.25V190H181.75V230.5ZM202 -93.5C90.22 -93.5 -0.5 -2.78 -0.5 109C-0.5 220.78 90.22 311.5 202 311.5C313.78 311.5 404.5 220.78 404.5 109C404.5 -2.78 313.78 -93.5 202 -93.5ZM202 271C112.698 271 40 198.302 40 109C40 19.6975 112.698 -53 202 -53C291.302 -53 364 19.6975 364 109C364 198.302 291.302 271 202 271ZM202 -12.5C157.247 -12.5 121 23.7475 121 68.5H161.5C161.5 46.225 179.725 28 202 28C224.275 28 242.5 46.225 242.5 68.5C242.5 109 181.75 103.938 181.75 169.75H222.25C222.25 124.188 283 119.125 283 68.5C283 23.7475 246.753 -12.5 202 -12.5Z" fill="#F9F9F9"/>
</svg>
