<svg width="230" height="40" viewBox="0 0 230 40" fill="none" xmlns="http://www.w3.org/2000/svg">
<path d="M25.1793 26.2636C25.1793 28.2047 24.8334 29.9476 24.1415 31.4926C24.0687 31.6906 23.9413 31.9962 23.7592 32.4093C23.5771 32.8281 23.3769 33.1959 23.1584 33.5128C22.9399 33.8694 22.6486 34.2146 22.2845 34.5485C21.9204 34.888 21.6837 35.1172 21.5744 35.236C21.3924 35.3945 21.1479 35.6406 20.841 35.9745C20.5289 36.3141 20.2454 36.5829 19.9905 36.7809C17.8057 38.3259 15.3843 39.1775 12.7262 39.336H1.91166C2.3122 39.336 2.58529 39.2568 2.73094 39.0983L2.84018 38.8012C2.84018 38.7616 2.80377 38.623 2.73094 38.3853C2.65812 38.2268 2.52287 38.009 2.3252 37.7317C2.12233 37.4544 2.0209 37.2959 2.0209 37.2563C1.98448 37.1771 1.94807 37.0978 1.91166 37.0186C1.87525 36.9394 1.85704 36.8404 1.85704 36.7215L1.69318 36.6621C1.4383 36.8602 1.27444 36.979 1.20161 37.0186C1.09238 37.1375 0.964933 37.1969 0.819283 37.1969C0.746457 37.1969 0.66583 37.1771 0.577399 37.1375C0.483767 37.0978 0.382332 37.078 0.273094 37.078C0.163856 37.078 0.0910312 37.0978 0.0546186 37.1375C0.018206 34.7607 0 31.136 0 26.2636V23.5303C0 20.5197 0.018206 18.2815 0.0546186 16.8158C0.236681 11.7453 0.673633 6.57581 1.36547 1.30724C1.4383 1.26763 1.62036 1.24782 1.91166 1.24782C2.23937 1.24782 2.6035 1.30724 3.00404 1.42608C3.62305 1.66376 4.13283 1.8024 4.53336 1.84202L5.5165 2.0797L5.46189 1.96086H5.40727C5.29803 1.88163 5.14458 1.81089 4.94691 1.74864C4.74404 1.69205 4.6426 1.62414 4.6426 1.54492C4.6426 1.5053 4.77005 1.42608 5.02493 1.30724C5.53471 1.22801 5.91704 1.1884 6.17193 1.1884C6.24476 1.06956 6.31758 1.01014 6.39041 1.01014C6.49964 1.01014 6.55426 1.06956 6.55426 1.1884H7.48278C7.77408 1.10917 8.00296 0.990332 8.16942 0.831879C8.33068 0.673426 8.46592 0.554584 8.57516 0.475357C8.28386 0.435744 7.91193 0.435744 7.45937 0.475357C7.00162 0.514971 6.62709 0.53478 6.33579 0.53478C5.57112 0.53478 5.00673 0.435745 4.6426 0.237679L7.20969 0.0594197C7.61023 0.0198064 8.22924 0 9.06673 0H9.88601C11.0876 0.0396133 12.5259 0.198064 14.2009 0.475357C14.5286 0.554584 14.9292 0.633813 15.4025 0.713039C15.8759 0.792266 16.2582 0.871492 16.5495 0.950718C17.2414 1.22801 18.0606 1.66376 19.0074 2.25796C19.1166 2.33718 19.2727 2.4249 19.4755 2.5211C19.6732 2.62296 19.8995 2.77293 20.1544 2.971C20.4092 3.16906 20.7734 3.52558 21.2467 4.04055C21.5016 4.27823 21.8111 4.67437 22.1753 5.22895C22.5758 5.90238 22.8671 6.67484 23.0492 7.54633C23.1584 8.25937 23.213 8.77434 23.213 9.09125C23.213 9.60622 23.1402 10.2995 22.9945 11.1709C22.8489 12.1613 22.6304 13.013 22.3391 13.726C21.975 14.6371 21.3846 15.469 20.5679 16.2216C19.746 16.9743 19.0256 17.4298 18.4066 17.5883C20.0815 18.341 21.1739 18.8757 21.6837 19.1926C22.4483 19.668 22.9945 20.1632 23.3223 20.6781C23.9777 21.5892 24.451 22.5881 24.7423 23.6746C25.0336 24.7668 25.1793 25.6298 25.1793 26.2636ZM7.48278 6.06083C7.48278 6.29851 7.46458 6.43716 7.42816 6.47677C7.35534 7.30865 7.28251 9.66564 7.20969 13.5477C7.17328 14.0231 7.15507 14.6371 7.15507 15.3898C8.24745 15.469 9.01211 15.5086 9.44906 15.5086C11.8523 15.5086 13.6001 15.0927 14.6925 14.2608C15.2022 13.8647 15.5482 13.4289 15.7302 12.9535C16.0579 12.2801 16.2218 11.6265 16.2218 10.9927C16.2218 10.6758 16.1854 10.3391 16.1126 9.98255C16.0397 9.62603 16.0033 9.36854 16.0033 9.21009C16.0033 8.89318 15.8863 8.61589 15.6522 8.37821C15.4129 8.14053 15.0566 7.86324 14.5832 7.54633C13.418 6.63523 11.5428 6.14006 8.95749 6.06083H7.48278ZM18.2973 26.3825C18.2973 25.5902 18.2245 24.9564 18.0788 24.481C17.9332 24.0057 17.6237 23.5501 17.1503 23.1144C17.0775 23.0351 16.7862 22.8059 16.2764 22.4268C15.7666 22.0533 15.2569 21.8071 14.7471 21.6883C14.565 21.6487 14.1099 21.5496 13.3816 21.3912C12.6534 21.2327 11.8341 21.1535 10.9238 21.1535C10.8874 21.0743 10.8509 20.995 10.8145 20.9158C10.7781 20.8366 10.7599 20.7376 10.7599 20.6187C10.3594 20.8168 9.86781 21.0035 9.2852 21.179C8.7026 21.3601 8.28386 21.4902 8.02897 21.5694C8.02897 21.3318 8.08359 21.162 8.19283 21.0601C8.30207 20.9639 8.37489 20.8762 8.4113 20.797C8.44772 20.7178 8.4113 20.6187 8.30206 20.4999C8.15641 20.3018 7.98476 20.0924 7.78709 19.8717C7.58422 19.6567 7.46458 19.5294 7.42816 19.4897C7.20969 19.2521 7.10045 18.9748 7.10045 18.6579C7.10045 18.5786 7.16547 18.44 7.29552 18.2419C7.42036 18.0439 7.48278 17.8854 7.48278 17.7666C7.40996 17.5289 7.28251 17.311 7.10045 17.1129C7.02763 18.1033 6.9548 18.8361 6.88198 19.3115C6.73632 21.0545 6.68171 22.3815 6.71812 23.2926C6.75453 23.8472 6.73632 24.7187 6.6635 25.9071L6.60888 27.8085C6.60888 28.165 6.64529 28.6998 6.71812 29.4129V30.0665L6.77274 33.2752H9.39444C11.1058 33.2752 12.4895 33.0771 13.5455 32.681C14.6014 32.2848 15.5118 31.6312 16.2764 30.7201C16.3857 30.5617 16.5859 30.3127 16.8772 29.9731C17.1685 29.6392 17.3506 29.4129 17.4234 29.294C18.006 28.3829 18.2973 27.4124 18.2973 26.3825ZM46.2622 31.552L48.2831 32.0868C49.3026 32.3641 49.9763 32.5621 50.304 32.681V32.9186C50.304 33.4732 50.2311 33.9684 50.0855 34.4041C50.0127 34.6418 49.9216 34.8993 49.8124 35.1766C49.7032 35.4539 49.5939 35.7906 49.4847 36.1867C49.4483 36.3056 49.4041 36.464 49.352 36.6621C49.2948 36.8602 49.2662 37.0582 49.2662 37.2563L49.3208 37.5534C49.3572 37.6326 49.4223 37.7203 49.5159 37.8165C49.6043 37.9184 49.6485 38.009 49.6485 38.0882C49.6485 38.1674 49.5757 38.2268 49.4301 38.2664C49.3937 38.3061 49.3208 38.3259 49.2116 38.3259C49.0659 38.3259 48.8761 38.2778 48.642 38.1816C48.4027 38.0797 48.2284 38.0288 48.1192 38.0288C47.9736 38.108 47.8383 38.2268 47.7135 38.3853C47.5834 38.5437 47.4638 38.6626 47.3545 38.7418C47.573 38.821 47.8565 38.9116 48.205 39.0134C48.5484 39.1096 48.8111 39.2087 48.9931 39.3105C49.1752 39.4067 49.2662 39.5341 49.2662 39.6925C49.0113 39.6133 48.629 39.5341 48.1192 39.4548C47.4638 39.3756 46.9722 39.2766 46.6445 39.1577C41.9109 38.2466 39.1435 37.7911 38.3424 37.7911H37.8509L37.3047 37.9099L36.8677 38.0288C36.6493 38.108 36.423 38.2183 36.1889 38.3598C35.9496 38.4956 35.7753 38.5635 35.6661 38.5635C35.3384 38.6824 35.1563 38.7418 35.1199 38.7418L34.7922 38.623L33.8637 37.7911C33.6088 37.7911 33.3539 37.9212 33.099 38.1816C32.8441 38.4362 32.6803 38.6032 32.6075 38.6824L32.2797 38.8012L31.8428 38.7418C31.6971 38.7418 31.6061 38.7616 31.5697 38.8012C31.4969 35.9491 31.4605 33.8099 31.4605 32.3839L31.952 20.2028C31.9884 19.3709 32.0431 18.7569 32.1159 18.3608C32.1159 18.2419 32.1263 18.0523 32.1471 17.792C32.1627 17.5374 32.1705 17.0535 32.1705 16.3405V13.0724C32.1705 12.1217 32.1341 10.5767 32.0613 8.43763C32.3162 8.27918 32.6439 8.19995 33.0444 8.19995L33.536 8.25937C33.718 8.29898 33.9183 8.3386 34.1368 8.37821C34.3553 8.41782 34.5919 8.43763 34.8468 8.43763H35.0653L35.6661 8.49705C35.8846 8.49705 36.0667 8.37821 36.2123 8.14053C36.2851 8.06131 36.3501 7.89153 36.4074 7.63122C36.4594 7.37656 36.5218 7.24923 36.5946 7.24923C36.7039 7.24923 36.7767 7.36807 36.8131 7.60575C36.9223 7.88304 36.977 8.39802 36.977 9.15067H40.0902C41.838 9.15067 43.604 9.28932 45.3883 9.56661C47.5366 9.96274 48.7564 10.2004 49.0477 10.2796V10.5767C49.0477 11.0521 48.9931 11.5275 48.8839 12.0028C48.8111 12.2801 48.7486 12.5574 48.6966 12.8347C48.6394 13.112 48.5744 13.4091 48.5015 13.726C48.4287 14.2806 48.3923 14.6173 48.3923 14.7361C48.3923 14.9738 48.4105 15.1323 48.4469 15.2115C48.4833 15.2907 48.5379 15.37 48.6108 15.4492C48.6836 15.5284 48.72 15.6076 48.72 15.6869C48.72 15.7265 48.6654 15.7859 48.5562 15.8651C48.5197 15.9047 48.4105 15.9245 48.2284 15.9245L47.4092 15.8651C47.2271 15.9047 47.0997 16.0236 47.0268 16.2216C46.954 16.4197 46.8994 16.5584 46.863 16.6376C47.0814 16.6772 47.3285 16.7168 47.6042 16.7564C47.8747 16.796 48.0828 16.8441 48.2284 16.9007C48.3741 16.963 48.4651 17.0733 48.5015 17.2318L46.2622 17.1129C43.2399 16.7168 41.1098 16.5187 39.8718 16.5187C39.2163 16.4395 38.7248 16.3999 38.3971 16.3999L38.1786 19.9651L38.9432 19.9057L43.8589 19.668C44.3687 19.5492 45.097 19.4501 46.0437 19.3709C45.9345 19.3709 45.8798 19.5294 45.8798 19.8463C45.8798 20.1632 45.9345 20.5593 46.0437 21.0347C46.1529 21.51 46.2076 21.8071 46.2076 21.926C46.244 22.0844 46.2622 22.3419 46.2622 22.6984V22.9955C46.2258 23.154 46.1711 23.3209 46.0983 23.4963C46.0255 23.6774 45.9891 23.867 45.9891 24.0651C45.9891 24.3424 46.0437 24.6395 46.1529 24.9564C46.2622 25.2733 46.335 25.4713 46.3714 25.5506L46.426 26.739L40.5272 27.2737C39.9446 27.3926 39.0161 27.4916 37.7416 27.5709L37.687 28.6404L37.6324 30.5418C38.9797 30.5418 41.8563 30.8786 46.2622 31.552ZM68.929 9.15067C69.1111 9.30912 69.2021 9.56661 69.2021 9.92313C69.1293 10.1608 69.02 10.3985 68.8744 10.6362L68.3828 11.3492C68.3464 11.4284 68.2736 11.5161 68.1643 11.6124C68.0551 11.7142 68.0005 11.8444 68.0005 12.0028L67.7274 12.6564C67.7274 12.9734 67.9094 13.1912 68.2736 13.3101C68.4192 13.4289 68.5935 13.5166 68.7963 13.5732C68.994 13.6355 69.1657 13.726 69.3113 13.8448C69.457 13.9637 69.5298 14.0429 69.5298 14.0825L68.8198 13.9637C68.4192 13.9637 68.0291 13.9439 67.6494 13.9043C67.2644 13.8647 66.9081 13.825 66.5804 13.7854L65.4334 13.726L64.4502 13.7854C64.1954 13.825 64.0133 13.8845 63.9041 13.9637C63.7948 14.0429 63.6856 14.1618 63.5763 14.3202C63.5399 14.439 63.4489 14.5777 63.3032 14.7361C63.4853 14.6569 63.722 14.606 64.0133 14.5833C64.3046 14.5664 64.5413 14.5579 64.7233 14.5579H66.0342C67.0537 14.5579 67.9823 14.7163 68.8198 15.0332L69.0382 15.2709C68.1279 15.0332 67.0537 14.9144 65.8157 14.9144H65.051C64.432 14.954 63.9405 15.0729 63.5763 15.2709C63.285 15.3105 62.8481 15.4492 62.2655 15.6869L61.5555 16.2216C61.519 16.2613 61.4098 16.3603 61.2277 16.5187C61.0457 16.6772 60.9546 16.9347 60.9546 17.2912C60.9546 18.0835 61.7921 18.9153 63.4671 19.7868L67.4543 21.5694C69.457 22.5598 70.9863 23.6689 72.0423 24.897C72.6613 25.6496 73.1164 26.3825 73.4077 27.0955C73.7355 27.8481 73.8993 28.6602 73.8993 29.5317C73.8993 30.1655 73.8083 30.9776 73.6262 31.9679L73.5716 32.1462C73.4624 32.3443 73.2985 32.6612 73.08 33.0969C72.8615 33.5326 72.6249 33.8892 72.37 34.1665C71.7874 34.8795 71.1684 35.4737 70.5129 35.9491C70.3673 36.1075 70.258 36.1867 70.1852 36.1867C70.1124 36.2264 70.0578 36.266 70.0214 36.3056C69.985 36.3452 69.9303 36.365 69.8575 36.365C69.6026 36.5631 69.4206 36.6819 69.3113 36.7215C68.7287 37.0384 68.2918 37.2167 68.0005 37.2563C66.7625 37.9693 65.6701 38.4051 64.7233 38.5635C62.6842 38.9993 60.991 39.2172 59.6438 39.2172H56.9128C56.9128 38.9003 57.1053 38.6937 57.4902 38.5975C57.87 38.4956 58.0416 38.3655 58.0052 38.207C57.9688 38.1278 57.87 38.009 57.7087 37.8505C57.5423 37.692 57.4044 37.5534 57.2952 37.4346C56.9675 37.2365 56.8036 37.0978 56.8036 37.0186C56.658 36.8206 56.5851 36.6423 56.5851 36.4838C56.5851 36.3254 56.6397 36.1867 56.749 36.0679L57.5137 35.7114C57.6229 35.7114 57.7685 35.6322 57.9506 35.4737L58.2237 35.236C58.2237 35.0776 58.0416 34.8795 57.6775 34.6418C57.5319 34.5626 57.3498 34.4636 57.1313 34.3447C56.9128 34.2259 56.749 34.107 56.6397 33.9882C56.5305 33.8694 56.4759 33.6713 56.4759 33.394L56.5305 33.2157C56.5305 33.0969 56.4577 32.9781 56.312 32.8592H58.7153C59.8076 32.78 60.5905 32.7404 61.0639 32.7404C62.0106 32.7404 62.9755 32.4433 63.9587 31.8491L65.3242 31.0766L65.7065 30.6013C65.8521 30.4428 65.925 30.1457 65.925 29.71C65.925 29.195 65.3606 28.6206 64.2318 27.9868L62.1563 26.9172L58.7699 25.2535C58.2237 24.897 57.6697 24.4612 57.1079 23.9462C56.5409 23.4313 56.2028 23.1144 56.0936 22.9955C54.455 21.3318 53.6357 19.5492 53.6357 17.6477V16.7564C53.6357 15.6076 53.7814 14.6852 54.0727 13.9892C54.364 13.2987 54.6371 12.8149 54.8919 12.5376C55.4745 11.9038 56.1118 11.3888 56.8036 10.9927C57.3498 10.5966 58.078 10.2202 58.9884 9.86371C60.0807 9.46758 60.9364 9.21009 61.5555 9.09125C61.8103 9.01202 62.0756 8.9526 62.3513 8.91299C62.6218 8.87338 62.9027 8.81396 63.194 8.73473H65.1057C66.3073 8.73473 67.5089 8.83376 68.7105 9.03183L68.929 9.15067ZM88.701 15.7463C88.6646 16.182 88.6464 16.8356 88.6464 17.7071V22.3419V22.8173C88.6464 23.1342 88.61 23.3916 88.5372 23.5897V29.4129C88.5372 30.8389 88.61 32.166 88.7556 33.394V33.6911C88.8649 34.8795 88.9559 36.5829 89.0287 38.8012C88.8467 38.7616 88.6568 38.6343 88.4591 38.4192C88.2563 38.1985 88.082 38.0882 87.9364 38.0882C87.6451 38.0882 87.3902 38.1985 87.1717 38.4192C86.9532 38.6343 86.8076 38.7616 86.7347 38.8012C86.4434 38.8804 86.225 38.9201 86.0793 38.9201C85.8608 38.9201 85.7334 38.9002 85.697 38.8606C85.6242 38.821 85.5071 38.7022 85.3459 38.5041C85.1794 38.3061 84.9869 38.1872 84.7685 38.1476C84.5136 38.1476 84.2509 38.2579 83.9804 38.4787C83.7047 38.6937 83.5122 38.8408 83.403 38.9201C83.2573 38.9993 83.1117 39.0389 82.966 39.0389H82.6383C82.4198 39.0389 82.2924 39.0587 82.256 39.0983C82.1103 35.8104 82.0011 27.9868 81.9283 15.6274H79.9074C80.672 15.6274 79.0699 15.469 75.1009 15.1521L74.6094 15.0927L74.5001 14.6173L74.6094 13.9043L74.664 13.6072V13.3695C74.8824 12.4584 75.0099 11.8642 75.0463 11.5869L75.1555 10.755C75.1555 10.5173 75.1009 10.3193 74.9917 10.1608C74.9189 10.1212 74.8096 10.0505 74.664 9.94859C74.5183 9.85239 74.4455 9.76468 74.4455 9.68545C74.4455 9.60622 74.5365 9.527 74.7186 9.44777L75.1555 9.38835L75.6471 9.44777C75.7199 9.48738 75.902 9.50719 76.1933 9.50719C76.4118 9.50719 76.5574 9.48738 76.6302 9.44777C76.8487 9.36854 77.023 9.2299 77.153 9.03183C77.2779 8.83376 77.3767 8.69512 77.4495 8.61589C77.1582 8.57627 76.7395 8.51686 76.1933 8.43763C75.6471 8.3584 75.1738 8.25937 74.7732 8.14053L74.6094 8.08111C74.8278 8.00189 74.9735 7.96227 75.0463 7.96227C75.2284 7.96227 75.4026 7.99057 75.5691 8.04716C75.7303 8.10941 75.902 8.14053 76.0841 8.14053L80.4536 8.02169C83.2209 8.02169 85.3511 8.00189 86.844 7.96227C87.8635 7.84343 89.939 7.78401 93.0705 7.78401C93.6895 7.7444 94.436 7.72459 95.3099 7.72459C95.2735 7.84343 95.1642 7.94247 94.9822 8.02169C94.8001 8.10092 94.7091 8.21976 94.7091 8.37821C94.7091 8.57628 94.7455 8.75454 94.8183 8.91299C94.9276 9.30912 95.029 9.62603 95.1226 9.86371C95.2111 10.1014 95.2553 10.24 95.2553 10.2796C95.2917 10.3589 95.3099 10.5569 95.3099 10.8738C95.3099 11.1511 95.2917 11.3096 95.2553 11.3492C95.2553 11.4284 95.1642 11.5558 94.9822 11.7312C94.8001 11.9123 94.7091 12.0622 94.7091 12.1811V12.4782C94.7091 12.6763 94.7923 12.9139 94.9588 13.1912C95.12 13.4685 95.2371 13.7062 95.3099 13.9043C95.3463 13.9439 95.3645 14.0627 95.3645 14.2608V14.6767C95.3645 14.7956 94.9926 14.9229 94.2487 15.0587C93.4997 15.2002 91.6504 15.4294 88.701 15.7463ZM122.783 4.87243C122.783 5.34779 122.547 5.76373 122.073 6.12025C121.964 6.19948 121.764 6.37774 121.472 6.65503C121.181 6.93233 120.981 7.18981 120.872 7.42749L120.38 7.90285C120.344 7.94246 120.325 8.06131 120.325 8.25937C120.325 8.53666 120.398 8.75454 120.544 8.91299L121.418 9.80429C121.454 9.8439 121.472 9.92313 121.472 10.042C121.4 10.042 121.217 9.98255 120.926 9.86371C120.598 9.78448 120.216 9.60622 119.779 9.32893C119.342 9.05163 119.051 8.87338 118.905 8.79415C118.177 8.31879 117.503 7.98208 116.884 7.78401C116.557 7.66517 116.284 7.60575 116.065 7.60575C115.992 7.60575 115.938 7.61424 115.901 7.63122C115.865 7.65385 115.828 7.66517 115.792 7.66517C115.646 7.70478 115.511 7.7444 115.386 7.78401C115.256 7.82362 115.155 7.86324 115.082 7.90285C115.3 7.98208 115.592 8.14053 115.956 8.37821C116.32 8.61589 116.593 8.73473 116.775 8.73473L118.304 9.44777C118.414 9.56661 118.778 9.78448 119.397 10.1014C119.87 10.3391 120.227 10.5569 120.466 10.755C120.7 10.9531 120.762 11.1511 120.653 11.3492C119.379 10.4777 118.122 9.78448 116.884 9.26951C116.593 9.15067 116.294 9.03183 115.987 8.91299C115.675 8.79415 115.337 8.6555 114.973 8.49705C114.718 8.41782 114.4 8.3386 114.021 8.25937C113.636 8.18014 113.316 8.10092 113.061 8.02169C112.588 7.86324 112.005 7.78401 111.313 7.78401C110.913 7.78401 110.658 7.80382 110.549 7.84343C110.221 7.88304 109.911 8.00189 109.62 8.19995C109.292 8.35841 109.019 8.55647 108.801 8.79415C108.473 9.07144 108.236 9.34874 108.091 9.62603C107.799 9.98255 107.563 10.3589 107.381 10.755C107.235 11.1511 106.889 12.1217 106.343 13.6666C106.161 14.4985 105.961 15.7067 105.742 17.2912C105.56 18.7965 105.469 20.0641 105.469 21.0941C105.469 22.3221 105.524 23.5303 105.633 24.7187C105.815 25.9467 106.07 26.9767 106.398 27.8085C106.907 28.8385 107.362 29.5317 107.763 29.8882C108.455 30.4824 109.11 30.8786 109.729 31.0766C110.385 31.2747 111.04 31.3737 111.696 31.3737L112.351 31.3143C113.48 31.2351 114.445 31.0568 115.246 30.7795C115.974 30.5418 116.622 30.2334 117.189 29.8543C117.75 29.4808 118.814 28.7196 120.38 27.5709C120.344 27.8481 120.234 28.0858 120.052 28.2839C119.87 28.482 119.779 28.6206 119.779 28.6998C119.779 28.7394 119.779 28.8074 119.779 28.9036C119.779 29.0054 119.852 29.1158 119.998 29.2346C120.143 29.3534 120.435 29.4723 120.872 29.5911C121.017 29.6307 121.145 29.6704 121.254 29.71C121.363 29.7496 121.436 29.809 121.472 29.8882C121.509 29.9278 121.618 29.9957 121.8 30.092C121.982 30.1938 122.073 30.4032 122.073 30.7201C122 30.8389 121.927 30.9663 121.855 31.1021C121.782 31.2436 121.691 31.3935 121.582 31.552C121.4 31.8689 121.308 32.0868 121.308 32.2056C121.381 32.4433 121.636 32.6215 122.073 32.7404C122.328 32.78 122.729 32.7998 123.275 32.7998C123.42 32.8394 123.522 32.9073 123.579 33.0035C123.631 33.1054 123.675 33.1959 123.712 33.2752C123.748 33.3148 123.803 33.3827 123.876 33.4789C123.948 33.5808 124.039 33.6515 124.149 33.6911C121.308 35.6718 119.087 36.9592 117.485 37.5534C117.048 37.7515 116.538 37.9212 115.956 38.0627C115.373 38.1985 114.954 38.2862 114.7 38.3259C113.935 38.4843 112.952 38.5635 111.75 38.5635C110.549 38.5635 109.474 38.4645 108.528 38.2664C107.217 37.8703 106.179 37.4148 105.414 36.8998C104.941 36.6225 104.122 35.9887 102.957 34.9983C102.119 34.008 101.536 33.1761 101.209 32.5027C100.663 31.6708 100.244 30.7993 99.9525 29.8882C99.5156 28.3829 99.2607 27.4718 99.1878 27.1549C98.8237 25.4119 98.6417 23.6689 98.6417 21.926V20.6781C98.6417 19.4501 98.6963 18.1825 98.8055 16.8753L98.8601 16.5187C99.115 14.855 99.3153 13.627 99.4609 12.8347C99.8251 11.0917 100.207 9.74487 100.608 8.79415L101.591 6.65503C101.81 6.29851 102.028 5.95048 102.246 5.61094C102.465 5.27706 102.683 4.95166 102.902 4.63475C103.448 3.96133 104.031 3.38694 104.65 2.91158C105.524 2.27776 106.252 1.8024 106.834 1.4855C107.199 1.24782 107.628 1.07805 108.122 0.976183C108.611 0.879979 108.928 0.812072 109.074 0.772459C109.766 0.574393 110.567 0.475357 111.477 0.475357C112.788 0.475357 114.19 0.713037 115.683 1.1884C117.03 1.62414 118.25 2.0797 119.342 2.55506C120.799 3.30771 121.891 3.92172 122.619 4.39708L122.783 4.87243ZM154.189 25.1346C153.898 27.1549 153.315 29.1158 152.441 31.0172C152.077 31.8095 151.567 32.6413 150.912 33.5128C150.402 34.3447 149.71 35.1257 148.836 35.8557C147.962 36.5914 147.089 37.1375 146.215 37.494C145.414 37.9693 144.339 38.3259 142.992 38.5635C142.191 38.6428 141.627 38.6824 141.299 38.6824C141.008 38.6824 140.498 38.6428 139.77 38.5635L138.677 38.4447C137.585 38.4051 136.529 38.207 135.509 37.8505C134.126 37.2959 133.143 36.7413 132.56 36.1867C131.941 35.7906 131.194 35.0776 130.321 34.0476C129.629 33.0177 129.137 32.1462 128.846 31.4331C128.409 30.5617 128.099 29.6505 127.917 28.6998C127.59 27.1549 127.426 25.5308 127.426 23.8274L127.48 22.639V22.5796C127.808 19.6482 128.9 16.9149 130.758 14.3796C131.959 12.8347 133.215 11.6067 134.526 10.6956L134.854 10.5767C135.254 10.6164 135.528 10.7748 135.673 11.0521C135.746 11.0917 135.819 11.27 135.892 11.5869V12.0622L136.056 13.0724C136.056 13.4289 136.147 13.726 136.329 13.9637L136.493 14.6767C136.675 14.8748 136.838 14.9738 136.984 14.9738C137.021 14.9738 137.075 14.9625 137.148 14.9399C137.221 14.9229 137.312 14.9342 137.421 14.9738C137.457 14.9738 137.64 14.8946 137.967 14.7361C138.295 14.5777 138.568 14.5183 138.787 14.5579C138.896 14.5579 138.95 14.5777 138.95 14.6173C138.914 14.7758 138.75 14.9342 138.459 15.0927C138.204 15.4492 137.913 15.6869 137.585 15.8057C137.476 15.8849 137.322 16.0236 137.125 16.2216C136.922 16.4197 136.729 16.5584 136.547 16.6376C135.819 17.1922 135.254 17.8458 134.854 18.5984C134.635 18.9153 134.508 19.2719 134.472 19.668L134.417 19.9057C134.417 20.2622 134.435 20.5395 134.472 20.7376C134.69 20.3414 135.091 19.7868 135.673 19.0738C136.11 18.6381 136.493 18.2221 136.82 17.826C137.476 17.2318 138.032 16.7762 138.49 16.4593C138.943 16.1424 139.296 16.0434 139.551 16.1622C138.604 16.5187 137.512 17.4497 136.274 18.955C135.801 19.668 135.4 20.4093 135.072 21.179C134.745 21.9543 134.581 22.9559 134.581 24.1839C134.581 25.61 134.901 26.9059 135.541 28.0717C136.175 29.2431 137.203 29.9476 138.623 30.1853L140.097 30.3636C140.243 30.3636 140.498 30.3721 140.862 30.3891C141.226 30.4117 141.481 30.4032 141.627 30.3636C143.156 30.2447 144.412 29.6307 145.395 28.5216C146.379 27.4124 146.979 25.9467 147.198 24.1245C147.198 24.0057 147.226 23.5784 147.284 22.8427C147.336 22.1127 147.343 21.5892 147.307 21.2723C147.198 20.7574 147.026 20.2424 146.792 19.7274C146.553 19.2124 146.306 18.7173 146.051 18.2419L145.395 17.41C145.286 17.1724 145.159 17.0337 145.013 16.9941L144.74 16.6376L144.085 16.2216L143.538 16.1028L142.774 16.1622C142.3 16.1622 141.882 16.182 141.517 16.2216L140.207 16.5187C139.915 16.5187 139.751 16.4989 139.715 16.4593C139.679 16.4197 139.697 16.3603 139.77 16.2811C139.842 16.2018 139.897 16.1424 139.934 16.1028C139.97 16.0632 139.988 15.9245 139.988 15.6869C139.988 15.6472 139.934 15.5086 139.824 15.2709C139.751 15.0729 139.634 14.8946 139.473 14.7361C139.307 14.5777 139.187 14.4588 139.114 14.3796C138.714 14.2212 138.513 14.0429 138.513 13.8448C138.441 13.6072 138.368 13.4487 138.295 13.3695L138.35 13.1318C138.35 12.9337 138.386 12.7951 138.459 12.7159C138.568 12.6366 138.695 12.5574 138.841 12.4782C138.987 12.399 139.151 12.2999 139.333 12.1811C139.733 12.0226 139.934 11.884 139.934 11.7651L139.988 11.3492C139.988 11.1908 139.824 11.0125 139.497 10.8144L138.404 10.1014C138.295 9.98255 138.259 9.8241 138.295 9.62603V9.03183C138.295 8.91299 138.24 8.83377 138.131 8.79415C138.459 8.75454 138.833 8.70361 139.255 8.64136C139.671 8.58477 140.152 8.51686 140.698 8.43763L142.555 8.14053L144.849 8.37821C145.359 8.41782 146.014 8.59608 146.815 8.91299C147.362 9.07144 148.017 9.48738 148.782 10.1608L149.601 10.755L150.311 11.5869C150.967 12.2207 151.422 12.7159 151.677 13.0724C152.478 14.34 153.06 15.5482 153.424 16.697C153.497 16.9743 153.653 17.4581 153.893 18.1485C154.127 18.8446 154.28 19.4501 154.353 19.9651C154.426 20.4405 154.462 20.8762 154.462 21.2723C154.462 21.9061 154.426 22.639 154.353 23.4709C154.28 24.3028 154.225 24.8573 154.189 25.1346ZM162.655 36.4244L162.109 36.8998L160.853 37.078C160.343 32.2452 159.997 28.68 159.815 26.3825L158.832 9.92313C159.159 9.76468 159.487 9.68545 159.815 9.68545L162.491 9.80429L163.201 9.74487C163.274 9.50719 163.31 9.36854 163.31 9.32893C163.238 9.05163 163.037 8.85357 162.71 8.73473C162.6 8.65551 162.327 8.58477 161.89 8.52252C161.453 8.46593 161.235 8.39802 161.235 8.31879L161.836 8.14053L162.491 8.02169C162.782 7.98208 163.11 7.97076 163.474 7.98774C163.838 8.01037 164.257 8.00189 164.73 7.96227H166.424L166.861 7.90285C167.552 7.86324 167.989 7.7642 168.171 7.60575C168.317 7.56614 168.455 7.50672 168.585 7.42749C168.71 7.34827 168.845 7.26904 168.991 7.18981C168.226 7.07097 166.897 6.97194 165.004 6.89271C164.785 6.89271 164.53 6.88139 164.239 6.85876C163.948 6.84178 163.802 6.81349 163.802 6.77387C163.802 6.73426 164.639 6.65503 166.314 6.53619C171.23 6.53619 175.035 7.83211 177.73 10.424C180.424 13.0215 182.045 16.6772 182.591 21.3912C182.627 21.6289 182.645 21.9854 182.645 22.4607C182.645 23.0549 182.627 23.4907 182.591 23.768C182.591 25.2337 182.391 26.7984 181.99 28.4621C181.808 29.4525 181.589 30.2447 181.335 30.8389L181.225 31.0172C181.116 31.2153 180.96 31.5209 180.757 31.934C180.56 32.3527 180.333 32.7008 180.078 32.9781C179.751 33.6119 179.241 34.3249 178.549 35.1172C177.675 35.8698 177.02 36.3848 176.583 36.6621L175.545 37.3157C175.181 37.4742 174.817 37.692 174.453 37.9693L167.953 39.4548L162.71 39.9302C162.928 39.7321 163.212 39.5737 163.56 39.4548C163.903 39.336 164.075 39.1973 164.075 39.0389C164.075 38.9597 164.057 38.8918 164.02 38.8352C163.984 38.7729 163.948 38.7022 163.911 38.623C163.656 38.1872 163.329 37.7515 162.928 37.3157C162.746 37.1177 162.655 36.9394 162.655 36.7809V36.4244ZM174.562 19.3115C174.453 19.1134 174.289 18.6975 174.07 18.0637C173.633 16.8753 173.324 16.1226 173.142 15.8057C172.596 14.9342 171.768 14.3598 170.661 14.0825C169.547 13.8052 168.19 13.6666 166.588 13.6666C166.405 13.6666 166.314 13.6864 166.314 13.726L167.188 26.7984C167.225 27.0757 167.261 27.4209 167.298 27.834C167.334 28.2528 167.352 28.581 167.352 28.8187L167.516 30.8389L167.68 32.265C170.374 31.8293 172.304 31.1162 173.469 30.1259C173.615 30.0071 173.761 29.8288 173.906 29.5911C174.052 29.3534 174.143 29.195 174.18 29.1158C174.252 28.9573 174.354 28.7479 174.484 28.4876C174.609 28.233 174.708 28.0066 174.78 27.8085C174.817 27.5709 174.9 27.1436 175.03 26.5268C175.155 25.9156 175.236 25.2931 175.272 24.6593C175.272 24.382 175.235 23.8076 175.163 22.9361L174.999 21.0347L174.562 19.3115ZM202.363 31.552L204.384 32.0868C205.403 32.3641 206.077 32.5621 206.405 32.681V32.9186C206.405 33.4732 206.332 33.9684 206.186 34.4041C206.113 34.6418 206.022 34.8993 205.913 35.1766C205.804 35.4539 205.695 35.7906 205.585 36.1867C205.549 36.3056 205.505 36.464 205.453 36.6621C205.396 36.8602 205.367 37.0582 205.367 37.2563L205.422 37.5534C205.458 37.6326 205.523 37.7203 205.617 37.8165C205.705 37.9184 205.749 38.009 205.749 38.0882C205.749 38.1674 205.676 38.2268 205.531 38.2664C205.494 38.3061 205.422 38.3259 205.312 38.3259C205.167 38.3259 204.977 38.2778 204.743 38.1816C204.503 38.0797 204.329 38.0288 204.22 38.0288C204.074 38.108 203.939 38.2268 203.814 38.3853C203.684 38.5437 203.564 38.6626 203.455 38.7418C203.674 38.821 203.957 38.9116 204.306 39.0134C204.649 39.1096 204.912 39.2087 205.094 39.3105C205.276 39.4067 205.367 39.5341 205.367 39.6925C205.112 39.6133 204.73 39.5341 204.22 39.4548C203.564 39.3756 203.073 39.2766 202.745 39.1577C198.012 38.2466 195.244 37.7911 194.443 37.7911H193.952L193.405 37.9099L192.968 38.0288C192.75 38.108 192.524 38.2183 192.29 38.3598C192.05 38.4956 191.876 38.5635 191.767 38.5635C191.439 38.6824 191.257 38.7418 191.221 38.7418L190.893 38.623L189.964 37.7911C189.709 37.7911 189.455 37.9212 189.2 38.1816C188.945 38.4362 188.781 38.6032 188.708 38.6824L188.38 38.8012L187.943 38.7418C187.798 38.7418 187.707 38.7616 187.67 38.8012C187.598 35.9491 187.561 33.8099 187.561 32.3839L188.053 20.2028C188.089 19.3709 188.144 18.7569 188.217 18.3608C188.217 18.2419 188.227 18.0523 188.248 17.792C188.263 17.5374 188.271 17.0535 188.271 16.3405V13.0724C188.271 12.1217 188.235 10.5767 188.162 8.43763C188.417 8.27918 188.745 8.19995 189.145 8.19995L189.637 8.25937C189.819 8.29898 190.019 8.3386 190.237 8.37821C190.456 8.41782 190.693 8.43763 190.948 8.43763H191.166L191.767 8.49705C191.985 8.49705 192.167 8.37821 192.313 8.14053C192.386 8.06131 192.451 7.89153 192.508 7.63122C192.56 7.37656 192.622 7.24923 192.695 7.24923C192.805 7.24923 192.877 7.36807 192.914 7.60575C193.023 7.88304 193.078 8.39802 193.078 9.15067H196.191C197.939 9.15067 199.705 9.28932 201.489 9.56661C203.637 9.96274 204.857 10.2004 205.148 10.2796V10.5767C205.148 11.0521 205.094 11.5275 204.985 12.0028C204.912 12.2801 204.849 12.5574 204.797 12.8347C204.74 13.112 204.675 13.4091 204.602 13.726C204.529 14.2806 204.493 14.6173 204.493 14.7361C204.493 14.9738 204.511 15.1323 204.548 15.2115C204.584 15.2907 204.639 15.37 204.711 15.4492C204.784 15.5284 204.821 15.6076 204.821 15.6869C204.821 15.7265 204.766 15.7859 204.657 15.8651C204.62 15.9047 204.511 15.9245 204.329 15.9245L203.51 15.8651C203.328 15.9047 203.2 16.0236 203.128 16.2216C203.055 16.4197 203 16.5584 202.964 16.6376C203.182 16.6772 203.429 16.7168 203.705 16.7564C203.975 16.796 204.183 16.8441 204.329 16.9007C204.475 16.963 204.566 17.0733 204.602 17.2318L202.363 17.1129C199.341 16.7168 197.21 16.5187 195.972 16.5187C195.317 16.4395 194.825 16.3999 194.498 16.3999L194.279 19.9651L195.044 19.9057L199.96 19.668C200.469 19.5492 201.198 19.4501 202.144 19.3709C202.035 19.3709 201.981 19.5294 201.981 19.8463C201.981 20.1632 202.035 20.5593 202.144 21.0347C202.254 21.51 202.308 21.8071 202.308 21.926C202.345 22.0844 202.363 22.3419 202.363 22.6984V22.9955C202.326 23.154 202.272 23.3209 202.199 23.4963C202.126 23.6774 202.09 23.867 202.09 24.0651C202.09 24.3424 202.144 24.6395 202.254 24.9564C202.363 25.2733 202.436 25.4713 202.472 25.5506L202.527 26.739L196.628 27.2737C196.045 27.3926 195.117 27.4916 193.842 27.5709L193.788 28.6404L193.733 30.5418C195.08 30.5418 197.957 30.8786 202.363 31.552ZM225.03 9.15067C225.212 9.30912 225.303 9.56661 225.303 9.92313C225.23 10.1608 225.121 10.3985 224.975 10.6362L224.484 11.3492C224.447 11.4284 224.374 11.5161 224.265 11.6124C224.156 11.7142 224.101 11.8444 224.101 12.0028L223.828 12.6564C223.828 12.9734 224.01 13.1912 224.374 13.3101C224.52 13.4289 224.694 13.5166 224.897 13.5732C225.095 13.6355 225.266 13.726 225.412 13.8448C225.558 13.9637 225.63 14.0429 225.63 14.0825L224.92 13.9637C224.52 13.9637 224.13 13.9439 223.75 13.9043C223.365 13.8647 223.009 13.825 222.681 13.7854L221.534 13.726L220.551 13.7854C220.296 13.825 220.114 13.8845 220.005 13.9637C219.895 14.0429 219.786 14.1618 219.677 14.3202C219.641 14.439 219.55 14.5777 219.404 14.7361C219.586 14.6569 219.823 14.606 220.114 14.5833C220.405 14.5664 220.642 14.5579 220.824 14.5579H222.135C223.154 14.5579 224.083 14.7163 224.92 15.0332L225.139 15.2709C224.229 15.0332 223.154 14.9144 221.916 14.9144H221.152C220.533 14.954 220.041 15.0729 219.677 15.2709C219.386 15.3105 218.949 15.4492 218.366 15.6869L217.656 16.2216C217.62 16.2613 217.51 16.3603 217.328 16.5187C217.146 16.6772 217.055 16.9347 217.055 17.2912C217.055 18.0835 217.893 18.9153 219.568 19.7868L223.555 21.5694C225.558 22.5598 227.087 23.6689 228.143 24.897C228.762 25.6496 229.217 26.3825 229.508 27.0955C229.836 27.8481 230 28.6602 230 29.5317C230 30.1655 229.909 30.9776 229.727 31.9679L229.672 32.1462C229.563 32.3443 229.399 32.6612 229.181 33.0969C228.962 33.5326 228.726 33.8892 228.471 34.1665C227.888 34.8795 227.269 35.4737 226.614 35.9491C226.468 36.1075 226.359 36.1867 226.286 36.1867C226.213 36.2264 226.158 36.266 226.122 36.3056C226.086 36.3452 226.031 36.365 225.958 36.365C225.703 36.5631 225.521 36.6819 225.412 36.7215C224.829 37.0384 224.392 37.2167 224.101 37.2563C222.863 37.9693 221.771 38.4051 220.824 38.5635C218.785 38.9993 217.092 39.2172 215.744 39.2172H213.014C213.014 38.9003 213.206 38.6937 213.591 38.5975C213.971 38.4956 214.142 38.3655 214.106 38.207C214.069 38.1278 213.971 38.009 213.809 37.8505C213.643 37.692 213.505 37.5534 213.396 37.4346C213.068 37.2365 212.904 37.0978 212.904 37.0186C212.759 36.8206 212.686 36.6423 212.686 36.4838C212.686 36.3254 212.74 36.1867 212.85 36.0679L213.614 35.7114C213.724 35.7114 213.869 35.6322 214.051 35.4737L214.324 35.236C214.324 35.0776 214.142 34.8795 213.778 34.6418C213.633 34.5626 213.45 34.4636 213.232 34.3447C213.014 34.2259 212.85 34.107 212.74 33.9882C212.631 33.8694 212.577 33.6713 212.577 33.394L212.631 33.2157C212.631 33.0969 212.558 32.9781 212.413 32.8592H214.816C215.908 32.78 216.691 32.7404 217.165 32.7404C218.111 32.7404 219.076 32.4433 220.059 31.8491L221.425 31.0766L221.807 30.6013C221.953 30.4428 222.026 30.1457 222.026 29.71C222.026 29.195 221.461 28.6206 220.332 27.9868L218.257 26.9172L214.871 25.2535C214.324 24.897 213.77 24.4612 213.209 23.9462C212.642 23.4313 212.303 23.1144 212.194 22.9955C210.556 21.3318 209.736 19.5492 209.736 17.6477V16.7564C209.736 15.6076 209.882 14.6852 210.173 13.9892C210.465 13.2987 210.738 12.8149 210.993 12.5376C211.575 11.9038 212.212 11.3888 212.904 10.9927C213.45 10.5966 214.179 10.2202 215.089 9.86371C216.181 9.46758 217.037 9.21009 217.656 9.09125C217.911 9.01202 218.176 8.9526 218.452 8.91299C218.723 8.87338 219.003 8.81396 219.295 8.73473H221.206C222.408 8.73473 223.61 8.83376 224.811 9.03183L225.03 9.15067Z" fill="white"/>
</svg>
