<svg width="22" height="23" viewBox="0 0 22 23" fill="none" xmlns="http://www.w3.org/2000/svg">
<g clip-path="url(#clip0_22_406)">
<path fill-rule="evenodd" clip-rule="evenodd" d="M10.7388 0.649902C5.17553 0.649902 0.64978 5.17456 0.64978 10.7379C0.64978 16.3012 5.17548 20.8269 10.7388 20.8269C13.0058 20.8269 15.1004 20.0754 16.7866 18.8084L19.7375 21.751C19.9525 21.9644 20.2342 22.0716 20.5142 22.0716C20.7942 22.0716 21.0782 21.9651 21.2935 21.7473C21.723 21.3169 21.7201 20.6216 21.2914 20.1928L18.3937 17.3025C19.9097 15.5368 20.8268 13.2425 20.8268 10.7379C20.8268 5.1746 16.3021 0.649902 10.7388 0.649902ZM2.84978 10.7379C2.84978 6.38826 6.38903 2.8499 10.7388 2.8499C15.0875 2.8499 18.6268 6.38823 18.6268 10.7379C18.6268 15.0876 15.0875 18.6269 10.7388 18.6269C6.38908 18.6269 2.84978 15.0876 2.84978 10.7379Z" fill="#D61C4E"/>
</g>
<defs>
<clipPath id="clip0_22_406">
<rect width="22" height="23" fill="white"/>
</clipPath>
</defs>
</svg>
