<svg width="23" height="22" viewBox="0 0 23 22" fill="none" xmlns="http://www.w3.org/2000/svg">
<g id="Iconly/Light-Outline/Arrow - Right Circle">
<g id="Arrow - Right Circle">
<path id="Union" fill-rule="evenodd" clip-rule="evenodd" d="M11.238 1.51245C5.89309 1.51245 1.54517 5.76826 1.54517 11C1.54517 16.2316 5.89309 20.4875 11.238 20.4875C16.583 20.4875 20.9309 16.2316 20.9309 11C20.9309 5.76826 16.583 1.51245 11.238 1.51245ZM3.60548 11C3.60548 6.88073 7.02964 3.52912 11.238 3.52912C15.4464 3.52912 18.8706 6.88073 18.8706 11C18.8706 15.1192 15.4464 18.4708 11.238 18.4708C7.02964 18.4708 3.60548 15.1192 3.60548 11ZM11.376 7.02167C10.8069 7.02167 10.3463 7.47255 10.3463 8.02958V10.1279L8.20021 10.1277C7.63088 10.1269 7.17122 10.5785 7.17025 11.135C7.17025 11.692 7.63087 12.1435 8.19993 12.1435L10.3463 12.1437V14.2417C10.3463 14.7986 10.8067 15.2494 11.3755 15.2497C11.6608 15.2504 11.9187 15.1365 12.1044 14.9547C12.2902 14.7729 12.4065 14.5205 12.4057 14.2413L12.4057 14.2406L12.4057 12.1439L14.5514 12.1441C14.8367 12.1449 15.0953 12.031 15.281 11.8492C15.4659 11.6682 15.5831 11.4151 15.5823 11.1357C15.582 10.5789 15.1215 10.1283 14.5526 10.1283L12.4057 10.1281L12.4057 8.02958C12.4057 7.47255 11.9451 7.02167 11.376 7.02167Z" fill="#D61C4E"/>
</g>
</g>
</svg>
